#!OML:ASF E:\acrobat2\Project_11_07_03\Capture day 1\Session 1\Acrobat.ASF
:FULLY-SPECIFIED
:DEGREES
568
root 14.0755 3.93654 5.76897 84.5854 39.1583 -183.458
lowerback 9.25286 0.903907 7.6552
upperback 3.01173 2.21076 3.63114
thorax -1.91253 1.20638 -0.760354
lowerneck -2.17927 0.840803 -1.89967
upperneck -1.88078 1.30114 6.89833
head -0.276542 0.685388 2.50578
rclavicle -4.96962e-014 -9.8299e-014
rhumerus -28.1799 10.2182 -81.9918
rradius 22.2439
rwrist 22.2465
rhand -10.4429 -45.3428
rfingers 7.12502
rthumb 15.5571 -74.7371
lclavicle -4.96962e-014 -9.8299e-014
lhumerus -30.0225 -32.4626 83.9259
lradius 16.2016
lwrist -14.3223
lhand -5.96355 2.09616
lfingers 7.12502
lthumb 19.8674 31.1007
rfemur -6.48876 -2.71301 40.1579
rtibia -1.74005
rfoot 2.57657 -25.946
rtoes 33.786
lfemur -13.3566 -0.0877936 5.87178
ltibia 0.280822
lfoot -3.54294 11.5899
ltoes 8.24987
569
root 14.087 3.61688 5.68973 89.1333 38.9044 -181.191
lowerback 8.72998 0.707331 7.03077
upperback 2.34181 1.87325 3.79718
thorax -2.37156 1.00247 -0.205732
lowerneck -3.12846 0.789378 -1.50042
upperneck -2.44736 1.25007 5.97256
head -0.280105 0.667369 2.13142
rclavicle -4.01545e-014 -4.65156e-014
rhumerus -26.8063 14.7201 -82.1655
rradius 24.7723
rwrist 17.9262
rhand -13.2999 -43.4783
rfingers 7.12502
rthumb 12.8041 -73.0657
lclavicle -4.01545e-014 -4.65156e-014
lhumerus -32.3634 -36.451 87.5743
lradius 16.1281
lwrist -14.162
lhand -3.81604 4.16991
lfingers 7.12502
lthumb 21.9306 32.9469
rfemur -6.59189 -2.37748 39.4345
rtibia -3.01243
rfoot 5.62828 -26.913
rtoes 22.179
lfemur -12.6422 -0.47868 5.53686
ltibia -1.26713
lfoot -5.03388 12.8212
ltoes 10.7854
570
root 14.0866 3.39755 5.5926 93.3452 38.5492 -179.133
lowerback 7.70613 0.521506 6.78729
upperback 1.65464 1.5327 3.88235
thorax -2.5444 0.807731 0.0635955
lowerneck -3.76945 0.717727 -1.49931
upperneck -2.743 1.17745 5.69026
head -0.258984 0.641601 2.04147
rclavicle -2.50469e-014 -1.27769e-013
rhumerus -26.3202 18.7764 -81.9462
rradius 27.4963
rwrist 15.7707
rhand -15.9824 -41.0552
rfingers 7.12502
rthumb 10.2171 -70.7871
lclavicle -2.50469e-014 -1.27769e-013
lhumerus -31.5812 -37.1079 88.8676
lradius 14.3109
lwrist -15.7197
lhand -1.97662 4.61835
lfingers 7.12502
lthumb 23.6958 33.1777
rfemur -6.67864 -1.67976 38.6835
rtibia -4.33486
rfoot 11.8115 -28.3351
rtoes -4.31163
lfemur -11.7608 -0.3722 5.09519
ltibia -2.09189
lfoot -6.14081 14.1511
ltoes 16.917
571
root 14.0742 3.27042 5.48703 97.2503 38.1674 -177.287
lowerback 6.20681 0.34375 6.80251
upperback 0.914055 1.18567 3.96229
thorax -2.49393 0.616733 0.184983
lowerneck -3.86578 0.698958 -1.8178
upperneck -2.95263 1.18451 5.88275
head -0.311287 0.649763 2.16204
rclavicle 2.10712e-014 1.87852e-014
rhumerus -26.5446 22.2406 -81.4533
rradius 30.1873
rwrist 15.7458
rhand -18.0769 -38.621
rfingers 7.12502
rthumb 8.19613 -68.442
lclavicle 2.10712e-014 1.87852e-014
lhumerus -30.2457 -37.084 89.3214
lradius 13.6339
lwrist -15.8583
lhand -0.762324 4.95436
lfingers 7.12502
lthumb 24.86 33.358
rfemur -7.10764 -0.916335 38.0669
rtibia -5.41339
rfoot 21.6854 -28.5495
rtoes -33.149
lfemur -11.0928 -0.390843 4.70689
ltibia -2.22147
lfoot -6.66968 16.4779
ltoes 19.9764
572
root 14.0486 3.22063 5.38495 100.898 37.7687 -175.694
lowerback 4.30715 0.212207 6.92947
upperback 0.0820532 0.883664 4.08765
thorax -2.30561 0.454805 0.281953
lowerneck -3.02382 0.68021 -2.40954
upperneck -3.59467 1.21601 6.26804
head -0.664051 0.651234 2.39277
rclavicle -2.38542e-015 -7.92157e-014
rhumerus -27.2536 24.9702 -80.7509
rradius 32.6234
rwrist 17.4236
rhand -19.5484 -36.5212
rfingers 7.12502
rthumb 6.7758 -66.3928
lclavicle -2.38542e-015 -7.92157e-014
lhumerus -28.9441 -36.3068 89.2862
lradius 14.3464
lwrist -13.781
lhand -0.329616 5.06952
lfingers 7.12502
lthumb 25.2746 33.4153
rfemur -8.16141 -0.0187029 37.5692
rtibia -6.04102
rfoot 31.4109 -26.9033
rtoes -43.5956
lfemur -11.0668 -0.775576 4.38286
ltibia -1.8103
lfoot -6.96971 19.8728
ltoes 19.9375
573
root 14.0129 3.23247 5.29509 104.217 37.3132 -174.378
lowerback 2.17653 0.111457 6.97165
upperback -0.806188 0.615269 4.26693
thorax -2.04207 0.320406 0.470579
lowerneck -1.70549 0.760786 -2.88572
upperneck -4.18433 1.34231 6.44376
head -1.09021 0.687209 2.53673
rclavicle 3.18055e-014 -9.0447e-014
rhumerus -28.2145 27.0547 -79.9602
rradius 34.6834
rwrist 19.9218
rhand -20.5767 -34.8572
rfingers 7.12502
rthumb 5.78302 -64.7583
lclavicle 3.18055e-014 -9.0447e-014
lhumerus -27.9866 -34.4048 89.0247
lradius 15.9571
lwrist -11.8298
lhand -0.856968 5.06087
lfingers 7.12502
lthumb 24.7693 33.477
rfemur -9.81147 0.999598 37.0684
rtibia -6.11686
rfoot 38.2797 -25.4107
rtoes -42.3986
lfemur -11.7909 -1.48278 4.03681
ltibia -1.18019
lfoot -7.16422 23.6744
ltoes 15.991
574
root 13.9704 3.29176 5.22022 107.1 36.7202 -173.358
lowerback -0.0186779 0.031773 6.78774
upperback -1.6644 0.379939 4.46871
thorax -1.70815 0.216478 0.796781
lowerneck -0.178118 0.919056 -3.2386
upperneck -4.63872 1.53256 6.41841
head -1.51732 0.750708 2.59299
rclavicle 6.36111e-015 -4.00551e-014
rhumerus -29.1852 28.5722 -79.1382
rradius 36.3128
rwrist 22.2642
rhand -21.3674 -33.6233
rfingers 7.12502
rthumb 5.01964 -63.5439
lclavicle 6.36111e-015 -4.00551e-014
lhumerus -25.8728 -29.5284 87.9687
lradius 16.0192
lwrist -11.952
lhand -1.88769 3.59459
lfingers 7.12502
lthumb 23.7811 32.1429
rfemur -11.8259 2.07616 36.3856
rtibia -5.79415
rfoot 41.7677 -24.9531
rtoes -35.4885
lfemur -13.1373 -2.22908 3.5212
ltibia -0.625696
lfoot -7.96127 26.9247
ltoes 12.466
575
root 13.9274 3.38477 5.15486 109.34 36.0186 -172.608
lowerback -2.00826 -0.0744224 6.37505
upperback -2.3674 0.138313 4.67337
thorax -1.32706 0.121841 1.24341
lowerneck 0.990769 1.14974 -3.33376
upperneck -4.52937 1.77503 6.15977
head -1.70004 0.849455 2.51897
rclavicle 1.74931e-014 1.18674e-013
rhumerus -29.948 29.6035 -78.3653
rradius 37.5035
rwrist 23.6675
rhand -22.0125 -32.7617
rfingers 7.12502
rthumb 4.3967 -62.6961
lclavicle 1.74931e-014 1.18674e-013
lhumerus -24.6908 -25.7255 87.778
lradius 16.8778
lwrist -10.6218
lhand -2.90901 2.29408
lfingers 7.12502
lthumb 22.8013 30.9664
rfemur -13.7039 3.09941 35.4799
rtibia -5.20361
rfoot 41.2047 -26.0422
rtoes -25.3339
lfemur -14.6741 -2.70483 2.79987
ltibia -0.408439
lfoot -9.44057 28.5907
ltoes 11.1916
576
root 13.8929 3.49748 5.08207 110.544 35.3348 -172.099
lowerback -3.30943 -0.227055 5.90427
upperback -2.7618 -0.114 4.85273
thorax -1.00936 0.0225736 1.68774
lowerneck 1.33457 1.43276 -3.09055
upperneck -3.49837 2.06205 5.73634
head -1.43227 0.988946 2.32108
rclavicle -7.95139e-015 -3.65764e-014
rhumerus -30.4005 30.1414 -77.7353
rradius 38.2588
rwrist 23.8866
rhand -22.6224 -32.2068
rfingers 7.12502
rthumb 3.80775 -62.1525
lclavicle -7.95139e-015 -3.65764e-014
lhumerus -24.0463 -22.7155 87.9858
lradius 18.4029
lwrist -8.88432
lhand -3.61303 1.18757
lfingers 7.12502
lthumb 22.1255 29.9416
rfemur -14.838 3.97716 34.4823
rtibia -4.59864
rfoot 37.2702 -28.0194
rtoes -15.5308
lfemur -15.7236 -2.48768 1.85571
ltibia -0.468373
lfoot -10.4957 27.615
ltoes 10.3793
